#!OML:ASF X:\für Bonn\!DataBase\2005_08_11_Bastian_Final\c3d\Bastian.ASF
:FULLY-SPECIFIED
:DEGREES
145
root -11.5321 15.0923 12.7922 420.891 -212.328 37.8927
lowerback 40.7385 8.31189 -22.9936
upperback 6.1053 1.66321 -13.2674
thorax -10.586 2.35982 -4.9951
lowerneck -26.4856 -0.142327 3.19194
upperneck -3.50791 -0.237524 8.60039
head 2.97232 0.989556 2.24035
rclavicle 6.99722e-014 -1.35174e-014
rhumerus 83.9683 -24.116 -38.705
rradius 21.0087
rwrist -5.9043
rhand -18.8203 -6.39062
rfingers 7.12502
rthumb 7.47865 -36.2384
lclavicle 6.99722e-014 -1.35174e-014
lhumerus 66.3793 21.3462 36.3779
lradius 21.3421
lwrist 48.3226
lhand -19.9284 -0.991965
lfingers 7.12502
lthumb 6.40892 28.8911
rfemur 19.9212 -35.59 14.3546
rtibia 54.2212
rfoot 14.428 11.4894
rtoes -45.1206
lfemur -79.0506 12.5363 1.77514
ltibia 79.1006
lfoot -23.6558 -12.0377
ltoes 17.9058
146
root -11.3859 15.1296 12.5511 422.944 -211.222 39.1859
lowerback 40.711 8.24911 -22.7036
upperback 5.93838 1.5747 -13.5687
thorax -10.8156 2.29742 -5.41621
lowerneck -27.3285 -0.133364 3.35754
upperneck -3.79515 -0.211266 8.87404
head 2.99293 1.08021 2.31765
rclavicle 3.18055e-015 8.5875e-014
rhumerus 84.0275 -23.7404 -37.9188
rradius 20.7181
rwrist -7.43499
rhand -18.9305 -6.83355
rfingers 7.12502
rthumb 7.37222 -36.6851
lclavicle 3.18055e-015 8.5875e-014
lhumerus 68.2407 22.3549 37.681
lradius 20.9995
lwrist 50.4895
lhand -19.9291 -1.26361
lfingers 7.12502
lthumb 6.40823 28.6195
rfemur 20.4827 -35.3648 12.9136
rtibia 55.3214
rfoot 15.0248 11.8183
rtoes -44.5267
lfemur -79.0199 13.7144 2.87678
ltibia 78.8548
lfoot -24.3708 -12.4495
ltoes 18.214
147
root -11.2381 15.1706 12.3055 424.897 -209.99 40.4039
lowerback 39.9961 7.88412 -21.9526
upperback 6.5969 1.62897 -14.2576
thorax -11.0895 2.21381 -5.86302
lowerneck -28.0126 -0.0205653 3.69023
upperneck -4.12011 -0.0862888 9.0071
head 2.97248 1.20302 2.33143
rclavicle -1.27222e-014 -3.49861e-014
rhumerus 83.7077 -23.4693 -36.431
rradius 20.5785
rwrist -9.77897
rhand -19.1252 -7.22125
rfingers 7.12502
rthumb 7.18433 -37.0793
lclavicle -1.27222e-014 -3.49861e-014
lhumerus 70.0503 23.1277 38.6354
lradius 20.7102
lwrist 52.7259
lhand -20.0794 -1.41782
lfingers 7.12502
lthumb 6.26314 28.4696
rfemur 21.2221 -35.1827 11.3362
rtibia 56.2841
rfoot 15.3799 12.5159
rtoes -44.9918
lfemur -78.8793 14.841 4.06068
ltibia 78.4787
lfoot -24.9794 -12.8909
ltoes 18.911
148
root -11.0898 15.2126 12.0571 426.731 -208.623 41.4896
lowerback 39.9028 7.85703 -21.6908
upperback 6.47727 1.61168 -14.4451
thorax -11.2347 2.17152 -6.18197
lowerneck -28.6363 0.120802 4.14359
upperneck -4.42555 0.0368638 9.06439
head 2.94682 1.31732 2.30172
rclavicle -2.8625e-014 -7.63333e-014
rhumerus 83.1681 -23.3261 -34.8805
rradius 20.5625
rwrist -12.2976
rhand -19.3075 -7.46655
rfingers 7.12502
rthumb 7.00837 -37.3305
lclavicle -2.8625e-014 -7.63333e-014
lhumerus 71.729 23.5601 38.9527
lradius 20.4917
lwrist 54.9276
lhand -20.5157 -1.38964
lfingers 7.12502
lthumb 5.84193 28.5098
rfemur 22.1016 -35.0316 9.67876
rtibia 57.0635
rfoot 15.5752 13.1389
rtoes -45.9716
lfemur -78.6586 15.8467 5.32715
ltibia 77.9674
lfoot -25.5649 -13.2154
ltoes 19.3952
149
root -10.9415 15.2603 11.8043 428.524 -207.21 42.4609
lowerback 39.8222 7.84714 -21.4759
upperback 6.31642 1.5749 -14.6024
thorax -11.4302 2.12217 -6.44435
lowerneck -29.2597 0.264485 4.59793
upperneck -4.63351 0.140582 9.08244
head 2.95063 1.41841 2.25893
rclavicle 1.59028e-014 -1.41535e-013
rhumerus 82.6092 -23.1938 -33.6638
rradius 20.6806
rwrist -14.7302
rhand -19.3664 -7.61315
rfingers 7.12502
rthumb 6.9515 -37.479
lclavicle 1.59028e-014 -1.41535e-013
lhumerus 73.0264 23.6419 38.3832
lradius 20.3916
lwrist 56.9895
lhand -21.4858 -1.28299
lfingers 7.12502
lthumb 4.90527 28.6402
rfemur 22.9706 -34.8126 8.02029
rtibia 57.6184
rfoot 15.8968 13.5442
rtoes -46.7729
lfemur -78.3753 16.7317 6.63528
ltibia 77.2817
lfoot -26.0948 -13.3726
ltoes 19.9302
150
root -10.7919 15.314 11.5448 430.37 -205.709 43.3521
lowerback 39.6535 7.83552 -21.2616
upperback 6.1313 1.54675 -14.7229
thorax -11.6274 2.07194 -6.66283
lowerneck -29.9907 0.406942 5.05134
upperneck -4.70249 0.211376 9.04821
head 3.01054 1.50443 2.20052
rclavicle 6.36111e-015 1.20861e-013
rhumerus 82.2174 -23.0964 -33.1631
rradius 20.8286
rwrist -16.6576
rhand -19.3713 -7.69311
rfingers 7.12502
rthumb 6.94677 -37.5591
lclavicle 6.36111e-015 1.20861e-013
lhumerus 74.0775 23.4774 37.2226
lradius 20.3661
lwrist 58.3849
lhand -22.8886 -1.17618
lfingers 7.12502
lthumb 3.55064 28.774
rfemur 23.7067 -34.4918 6.54814
rtibia 57.9362
rfoot 16.37 13.6733
rtoes -47.2696
lfemur -78.0788 17.5584 8.02211
ltibia 76.4015
lfoot -26.6556 -13.3397
ltoes 20.101
